<svg width="377" height="377" viewBox="0 0 377 377" fill="none" xmlns="http://www.w3.org/2000/svg">
<rect width="377" height="377" fill="white"/>
<path d="M54.9252 279.367L76.4 300.796H117.304V71.2041H96.8522V61H194V71.2041H176.104V287.275L152.329 311H70.7756L47 287.275L54.9252 279.367Z" fill="black"/>
<path d="M243.831 315H192V88H231.521C260.028 88 281.516 93.2967 295.986 103.89C310.455 114.267 317.69 128.968 317.69 147.993C317.69 169.612 308.62 185.502 290.479 195.663C316.826 205.608 330 224.308 330 251.764C330 271.221 322.873 286.679 308.62 298.137C294.366 309.379 272.77 315 243.831 315ZM243.831 305.271C253.981 305.271 263.268 304.515 271.69 303.001C280.113 301.272 288.103 298.57 295.662 294.894C303.437 291.003 309.484 285.382 313.803 278.031C318.122 270.681 320.282 261.925 320.282 251.764C320.282 228.632 309.16 212.958 286.915 204.743L267.479 197.609L285.62 187.231C300.521 179.016 307.972 165.937 307.972 147.993C307.972 114.483 282.488 97.7286 231.521 97.7286H201.718V305.271H243.831Z" fill="black"/>
</svg>
