<svg width="340" height="107" viewBox="0 0 340 107" fill="none" xmlns="http://www.w3.org/2000/svg">
<path d="M283.562 38.4V28.16H276.842V61.44H289.003L294.059 56.384L296.043 58.368L290.41 64H268.074L262.122 58.048V31.552L268.074 25.6H291.69L296.362 30.272V38.4H283.562Z" fill="black"/>
<path d="M244.99 20.48L235.262 10.688L245.055 0.959991L254.783 10.752L244.99 20.48ZM258.303 61.44V64H244.415L238.462 58.048V28.16H233.342V25.6H247.23L253.182 31.552V61.44H258.303Z" fill="black"/>
<path d="M230.795 61.44V64H216.267L210.955 58.688V28.16H206.475L201.995 32.64V61.44H205.195V64H182.155V61.44H187.275V28.16H182.155V25.6H196.043L200.587 30.08L205.067 25.6H219.723L225.675 31.552V61.44H230.795Z" fill="black"/>
<path d="M143.277 64L137.965 58.688V48.832L143.277 43.52H159.725V28.16H153.005V38.4H139.565V30.912L144.877 25.6H169.133L174.445 30.912V61.44H179.565V64H165.037L161.197 60.096L157.293 64H143.277ZM153.005 46.08V61.44H155.885L159.725 57.6V46.08H153.005Z" fill="black"/>
<path d="M132.873 28.16H128.521L116.873 64H102.217L90.5695 28.16H86.2175V25.6H109.833V28.16H105.225L115.337 59.264L125.449 28.16H120.841V25.6H132.873V28.16Z" fill="black"/>
<path d="M47.3395 64L42.0275 58.688V48.832L47.3395 43.52H63.7875V28.16H57.0675V38.4H43.6275V30.912L48.9395 25.6H73.1955L78.5075 30.912V61.44H83.6275V64H69.0995L65.2595 60.096L61.3555 64H47.3395ZM57.0675 46.08V61.44H59.9475L63.7875 57.6V46.08H57.0675Z" fill="black"/>
<path d="M2.10399 67.584L7.47999 72.96H17.72V15.36H12.6V12.8H36.92V15.36H32.44V69.568L26.488 75.52H6.07199L0.119995 69.568L2.10399 67.584Z" fill="black"/>
<path d="M311.443 62.2V107H309.523V62.2H311.443ZM337.747 62.2L316.243 83.576L339.796 107H337.044L313.492 83.576L334.995 62.2H337.747Z" fill="black"/>
<path d="M295.205 69.88H297.125V107H295.205V69.88Z" fill="black"/>
<path d="M287.83 69.88V71.8H274.39V107H272.47V71.8H259.03V69.88H287.83Z" fill="black"/>
<path d="M232.785 105.08H253.649L240.529 74.168L226.577 107H224.529L240.529 69.24L256.529 107H232.785V105.08Z" fill="black"/>
<path d="M204.296 107H195.08V69.88H202.12C207.155 69.88 210.952 70.7546 213.512 72.504C216.115 74.2533 217.416 76.6426 217.416 79.672C217.416 83.2986 215.816 85.9226 212.616 87.544C214.963 88.3546 216.712 89.5706 217.864 91.192C219.016 92.7706 219.592 94.6053 219.592 96.696C219.592 99.768 218.312 102.264 215.752 104.184C213.235 106.061 209.416 107 204.296 107ZM204.296 105.08C208.051 105.08 211.208 104.397 213.768 103.032C216.371 101.667 217.672 99.5546 217.672 96.696C217.672 95.3733 217.181 93.944 216.2 92.408C215.219 90.8293 213.704 89.6773 211.656 88.952L208.328 87.8L211.4 86.2C212.467 85.6453 213.405 84.8133 214.216 83.704C215.069 82.552 215.496 81.208 215.496 79.672C215.496 76.984 214.216 75 211.656 73.72C209.096 72.44 205.917 71.8 202.12 71.8H197V105.08H204.296Z" fill="black"/>
</svg>
