<svg width="340" height="132" viewBox="0 0 340 132" fill="none" xmlns="http://www.w3.org/2000/svg">
<path d="M2.104 76.584L7.48 81.96H17.72V24.36H12.6V21.8H36.92V24.36H32.44V78.568L26.488 84.52H6.072L0.12 78.568L2.104 76.584ZM47.3395 73L42.0275 67.688V57.832L47.3395 52.52H63.7875V37.16H57.0675V47.4H43.6275V39.912L48.9395 34.6H73.1955L78.5075 39.912V70.44H83.6275V73H69.0995L65.2595 69.096L61.3555 73H47.3395ZM57.0675 55.08V70.44H59.9475L63.7875 66.6V55.08H57.0675ZM132.874 37.16H128.522L116.874 73H102.218L90.5695 37.16H86.2175V34.6H109.834V37.16H105.226L115.338 68.264L125.45 37.16H120.842V34.6H132.874V37.16ZM143.277 73L137.965 67.688V57.832L143.277 52.52H159.725V37.16H153.005V47.4H139.565V39.912L144.877 34.6H169.133L174.445 39.912V70.44H179.565V73H165.037L161.197 69.096L157.293 73H143.277ZM153.005 55.08V70.44H155.885L159.725 66.6V55.08H153.005ZM230.795 70.44V73H216.267L210.955 67.688V37.16H206.475L201.995 41.64V70.44H205.195V73H182.155V70.44H187.275V37.16H182.155V34.6H196.043L200.587 39.08L205.067 34.6H219.723L225.675 40.552V70.44H230.795ZM244.991 29.48L235.263 19.688L245.055 9.96L254.783 19.752L244.991 29.48ZM258.303 70.44V73H244.415L238.463 67.048V37.16H233.343V34.6H247.231L253.183 40.552V70.44H258.303ZM283.563 47.4V37.16H276.843V70.44H289.003L294.059 65.384L296.043 67.368L290.411 73H268.075L262.123 67.048V40.552L268.075 34.6H291.691L296.363 39.272V47.4H283.563Z" fill="#DDB58A"/>
<path d="M204.296 116H195.08V78.88H202.12C207.155 78.88 210.952 79.7547 213.512 81.504C216.115 83.2533 217.416 85.6427 217.416 88.672C217.416 92.2987 215.816 94.9227 212.616 96.544C214.963 97.3547 216.712 98.5707 217.864 100.192C219.016 101.771 219.592 103.605 219.592 105.696C219.592 108.768 218.312 111.264 215.752 113.184C213.235 115.061 209.416 116 204.296 116ZM204.296 114.08C208.051 114.08 211.208 113.397 213.768 112.032C216.371 110.667 217.672 108.555 217.672 105.696C217.672 104.373 217.181 102.944 216.2 101.408C215.219 99.8293 213.704 98.6773 211.656 97.952L208.328 96.8L211.4 95.2C212.467 94.6453 213.405 93.8133 214.216 92.704C215.069 91.552 215.496 90.208 215.496 88.672C215.496 85.984 214.216 84 211.656 82.72C209.096 81.44 205.917 80.8 202.12 80.8H197V114.08H204.296ZM232.785 114.08H253.649L240.529 83.168L226.577 116H224.529L240.529 78.24L256.529 116H232.785V114.08ZM287.83 78.88V80.8H274.39V116H272.47V80.8H259.03V78.88H287.83ZM295.205 78.88H297.125V116H295.205V78.88ZM311.444 71.2V116H309.524V71.2H311.444ZM337.748 71.2L316.244 92.576L339.796 116H337.044L313.492 92.576L334.996 71.2H337.748Z" fill="#DDB58A"/>
</svg>
